<?xml version="1.0" standalone="no"?>
<!DOCTYPE svg PUBLIC "-//W3C//DTD SVG 20010904//EN"
 "http://www.w3.org/TR/2001/REC-SVG-20010904/DTD/svg10.dtd">
<svg version="1.0" xmlns="http://www.w3.org/2000/svg"
 width="500.000000pt" height="500.000000pt" viewBox="0 0 500.000000 500.000000"
 preserveAspectRatio="xMidYMid meet">
<metadata>
Created by potrace 1.14, written by Peter Selinger 2001-2017
</metadata>
<g transform="translate(0.000000,500.000000) scale(0.100000,-0.100000)"
fill="#000000" stroke="none">
<path d="M2250 4585 c-204 -27 -344 -63 -519 -132 -361 -142 -666 -374 -906
-689 -200 -263 -341 -585 -394 -904 -6 -36 -13 -81 -17 -100 -9 -56 -12 -399
-4 -465 4 -33 11 -85 15 -115 13 -107 80 -357 115 -435 5 -11 21 -48 35 -82
180 -442 556 -833 1010 -1053 211 -102 411 -164 636 -195 154 -21 489 -14 639
13 205 37 374 93 565 186 423 207 750 533 961 961 94 189 150 372 199 645 11
58 14 431 4 500 -5 36 -11 83 -14 105 -44 348 -234 756 -487 1048 -216 248
-452 419 -788 570 -85 38 -285 97 -415 122 -167 31 -473 41 -635 20z"/>
</g>
</svg>
